<svg width="32" height="32" viewBox="0 0 32 32" fill="none" xmlns="http://www.w3.org/2000/svg">
<path fill-rule="evenodd" clip-rule="evenodd" d="M24.787 18.9C24.6106 18.5431 24.7267 18.1107 25.058 17.89L26.9 16.659C27.1203 16.5121 27.2527 16.2648 27.2527 16C27.2527 15.7352 27.1203 15.4879 26.9 15.341L25.061 14.114C24.7297 13.8933 24.6136 13.4609 24.79 13.104L25.77 11.123C25.8877 10.8854 25.8787 10.6047 25.746 10.3751C25.6134 10.1456 25.3746 9.99764 25.11 9.981L22.91 9.838C22.5124 9.81313 22.1954 9.49652 22.17 9.099L22.02 6.893C22.0029 6.62861 21.8548 6.39024 21.6255 6.25767C21.3961 6.1251 21.1156 6.11585 20.878 6.233L18.896 7.213C18.5391 7.38983 18.1064 7.27373 17.886 6.942L16.659 5.1C16.5121 4.87965 16.2648 4.7473 16 4.7473C15.7352 4.7473 15.4879 4.87965 15.341 5.1L14.114 6.942C13.8936 7.27373 13.4609 7.38983 13.104 7.213L11.122 6.233C10.8844 6.11585 10.6039 6.1251 10.3745 6.25767C10.1452 6.39024 9.99713 6.62861 9.98 6.893L9.838 9.1C9.81259 9.49752 9.49555 9.81413 9.098 9.839L6.898 9.982C6.63338 9.99864 6.39465 10.1466 6.26198 10.3761C6.12931 10.6057 6.12031 10.8864 6.238 11.124L7.213 13.1C7.38936 13.4569 7.27335 13.8893 6.942 14.11L5.1 15.341C4.87965 15.4879 4.7473 15.7352 4.7473 16C4.7473 16.2648 4.87965 16.5121 5.1 16.659L6.939 17.886C7.27035 18.1067 7.38636 18.5391 7.21 18.896L6.23 20.878C6.11285 21.1156 6.1221 21.3961 6.25467 21.6255C6.38724 21.8548 6.62561 22.0029 6.89 22.02L9.095 22.162C9.49291 22.1869 9.81007 22.5041 9.835 22.902L9.977 25.102C9.99412 25.3664 10.1422 25.6048 10.3715 25.7373C10.6009 25.8699 10.8814 25.8792 11.119 25.762L13.101 24.782C13.458 24.6061 13.89 24.722 14.111 25.053L15.341 26.9C15.4879 27.1203 15.7352 27.2527 16 27.2527C16.2648 27.2527 16.5121 27.1203 16.659 26.9L17.886 25.061C18.107 24.73 18.539 24.6141 18.896 24.79L20.878 25.77C21.1156 25.8872 21.3961 25.8779 21.6255 25.7453C21.8548 25.6128 22.0029 25.3744 22.02 25.11L22.162 22.91C22.1869 22.5121 22.5041 22.1949 22.902 22.17L25.102 22.028C25.3664 22.0109 25.6048 21.8628 25.7373 21.6335C25.8699 21.4041 25.8792 21.1236 25.762 20.886L24.787 18.9Z" stroke="#160230" stroke-width="1.5" stroke-linecap="round" stroke-linejoin="round"/>
<path d="M16 11.629C16.2058 11.6284 16.3734 11.7942 16.375 12" stroke="#160230" stroke-width="1.5" stroke-linecap="round" stroke-linejoin="round"/>
<path d="M15.625 12C15.6266 11.7942 15.7942 11.6284 16 11.629" stroke="#160230" stroke-width="1.5" stroke-linecap="round" stroke-linejoin="round"/>
<path d="M16 12.379C15.8998 12.379 15.8039 12.3389 15.7334 12.2678C15.663 12.1966 15.6239 12.1001 15.625 12" stroke="#160230" stroke-width="1.5" stroke-linecap="round" stroke-linejoin="round"/>
<path d="M16.375 12C16.3761 12.1001 16.337 12.1966 16.2666 12.2678C16.1961 12.3389 16.1002 12.379 16 12.379" stroke="#160230" stroke-width="1.5" stroke-linecap="round" stroke-linejoin="round"/>
<path d="M12.83 13.213C13.0371 13.213 13.205 13.3809 13.205 13.588" stroke="#160230" stroke-width="1.5" stroke-linecap="round" stroke-linejoin="round"/>
<path d="M12.455 13.588C12.455 13.3809 12.6229 13.213 12.83 13.213" stroke="#160230" stroke-width="1.5" stroke-linecap="round" stroke-linejoin="round"/>
<path d="M12.83 13.963C12.6229 13.963 12.455 13.7951 12.455 13.588" stroke="#160230" stroke-width="1.5" stroke-linecap="round" stroke-linejoin="round"/>
<path d="M13.205 13.588C13.205 13.7951 13.0371 13.963 12.83 13.963" stroke="#160230" stroke-width="1.5" stroke-linecap="round" stroke-linejoin="round"/>
<path d="M19.17 13.213C19.3771 13.213 19.545 13.3809 19.545 13.588" stroke="#160230" stroke-width="1.5" stroke-linecap="round" stroke-linejoin="round"/>
<path d="M18.8 13.588C18.8 13.3809 18.9679 13.213 19.175 13.213" stroke="#160230" stroke-width="1.5" stroke-linecap="round" stroke-linejoin="round"/>
<path d="M19.17 13.963C18.9629 13.963 18.795 13.7951 18.795 13.588" stroke="#160230" stroke-width="1.5" stroke-linecap="round" stroke-linejoin="round"/>
<path d="M19.545 13.588C19.545 13.7951 19.3771 13.963 19.17 13.963" stroke="#160230" stroke-width="1.5" stroke-linecap="round" stroke-linejoin="round"/>
<path fill-rule="evenodd" clip-rule="evenodd" d="M16.873 15.9C16.3908 15.4181 15.6092 15.4181 15.127 15.9L13.169 17.855C12.8167 18.2083 12.7116 18.7388 12.9026 19.1997C13.0936 19.6606 13.5431 19.9614 14.042 19.962H17.958C18.4569 19.9614 18.9064 19.6606 19.0974 19.1997C19.2884 18.7388 19.1833 18.2083 18.831 17.855L16.873 15.9Z" stroke="#160230" stroke-width="1.5" stroke-linecap="round" stroke-linejoin="round"/>
</svg>
