<svg width="24" height="20" viewBox="0 0 24 20" fill="none" xmlns="http://www.w3.org/2000/svg">
<path d="M19.4451 20.0005H4.55515C3.59315 20.0005 2.74615 19.3615 2.49415 18.4485L0.0751459 9.6495C-0.0978541 9.0215 0.0311459 8.3615 0.428146 7.8405C0.834146 7.3065 1.45715 7.0005 2.13515 7.0005H21.8641C22.5431 7.0005 23.1661 7.3075 23.5731 7.8415C23.9691 8.3625 24.0981 9.0215 23.9251 9.6505L21.5061 18.4475C21.2551 19.3615 20.4071 20.0005 19.4451 20.0005ZM2.13515 9.0005L2.01815 9.0535L4.42215 17.9185C4.43515 17.9655 4.49215 18.0005 4.55515 18.0005H19.4461C19.5091 18.0005 19.5651 17.9655 19.5791 17.9175L21.9981 9.1195C21.9671 9.0335 21.9321 9.0005 21.8641 9.0005H2.13515ZM4.99915 9.0005C4.83115 9.0005 4.66015 8.9585 4.50415 8.8685C4.02515 8.5945 3.85815 7.9835 4.13215 7.5045L8.13215 0.504498C8.40715 0.0254979 9.01815 -0.141502 9.49615 0.132498C9.97515 0.406498 10.1421 1.0175 9.86815 1.4965L5.86815 8.4965C5.68415 8.8195 5.34615 9.0005 4.99915 9.0005ZM19.0011 9.0005C18.6531 9.0005 18.3161 8.8195 18.1321 8.4965L14.1321 1.4965C13.8581 1.0175 14.0251 0.406498 14.5041 0.132498C14.9831 -0.142502 15.5941 0.0244979 15.8681 0.504498L19.8681 7.5045C20.1421 7.9835 19.9751 8.5945 19.4961 8.8685C19.3401 8.9585 19.1691 9.0005 19.0011 9.0005Z" fill="#160230"/>
</svg>
