<svg width="32" height="32" viewBox="0 0 32 32" fill="none" xmlns="http://www.w3.org/2000/svg">
<path fill-rule="evenodd" clip-rule="evenodd" d="M10.75 27.25C14.0637 27.25 16.75 24.5637 16.75 21.25C16.75 17.9363 14.0637 15.25 10.75 15.25C7.43629 15.25 4.75 17.9363 4.75 21.25C4.75 24.5637 7.43629 27.25 10.75 27.25Z" stroke="#160230" stroke-width="1.5" stroke-linecap="round" stroke-linejoin="round"/>
<path d="M7.75 21.25C7.75 19.5931 9.09315 18.25 10.75 18.25" stroke="#160230" stroke-width="1.5" stroke-linecap="round" stroke-linejoin="round"/>
<path fill-rule="evenodd" clip-rule="evenodd" d="M22.75 16.75C25.2353 16.75 27.25 14.7353 27.25 12.25C27.25 9.76472 25.2353 7.75 22.75 7.75C20.2647 7.75 18.25 9.76472 18.25 12.25C18.25 14.7353 20.2647 16.75 22.75 16.75Z" stroke="#160230" stroke-width="1.5" stroke-linecap="round" stroke-linejoin="round"/>
<path d="M21.25 12.25C21.25 11.4216 21.9216 10.75 22.75 10.75" stroke="#160230" stroke-width="1.5" stroke-linecap="round" stroke-linejoin="round"/>
<path fill-rule="evenodd" clip-rule="evenodd" d="M10 9.25C11.2426 9.25 12.25 8.24264 12.25 7C12.25 5.75736 11.2426 4.75 10 4.75C8.75736 4.75 7.75 5.75736 7.75 7C7.75 8.24264 8.75736 9.25 10 9.25Z" stroke="#160230" stroke-width="1.5" stroke-linecap="round" stroke-linejoin="round"/>
<path d="M15.961 18.274L19.397 15.25" stroke="#160230" stroke-width="1.5" stroke-linecap="round" stroke-linejoin="round"/>
<path d="M18.638 10.42L12.149 7.664" stroke="#160230" stroke-width="1.5" stroke-linecap="round" stroke-linejoin="round"/>
</svg>
