<svg width="32" height="32" viewBox="0 0 32 32" fill="none" xmlns="http://www.w3.org/2000/svg">
<path fill-rule="evenodd" clip-rule="evenodd" d="M21.25 27.25C24.5637 27.25 27.25 24.5637 27.25 21.25C27.25 17.9363 24.5637 15.25 21.25 15.25C17.9363 15.25 15.25 17.9363 15.25 21.25C15.25 24.5637 17.9363 27.25 21.25 27.25Z" stroke="#160230" stroke-width="1.5" stroke-linecap="round" stroke-linejoin="round"/>
<path d="M23.924 19.505L21.019 23.379C20.8883 23.5528 20.6887 23.6615 20.4717 23.6768C20.2548 23.6921 20.0419 23.6127 19.888 23.459L18.388 21.959" stroke="#160230" stroke-width="1.5" stroke-linecap="round" stroke-linejoin="round"/>
<path d="M7.75 10.75V19.75H12.25" stroke="#160230" stroke-width="1.5" stroke-linecap="round" stroke-linejoin="round"/>
<path d="M7.75 16.75L10.439 14.061C10.7203 13.7795 11.102 13.6213 11.5 13.6213C11.898 13.6213 12.2797 13.7795 12.561 14.061L13.142 14.642C13.4686 14.9683 13.9273 15.1259 14.3855 15.0695C14.8437 15.013 15.2503 14.7488 15.488 14.353L15.846 13.753" stroke="#160230" stroke-width="1.5" stroke-linecap="round" stroke-linejoin="round"/>
<path d="M11.5 24.25H6.25C5.42157 24.25 4.75 23.5784 4.75 22.75V6.25C4.75 5.42157 5.42157 4.75 6.25 4.75H16.879C17.2765 4.75008 17.6578 4.90798 17.939 5.189L20.811 8.061C21.092 8.3422 21.2499 8.72345 21.25 9.121V11.5" stroke="#160230" stroke-width="1.5" stroke-linecap="round" stroke-linejoin="round"/>
</svg>
