<svg width="103" height="22" viewBox="0 0 103 22" fill="none" xmlns="http://www.w3.org/2000/svg">
<path d="M10.5113 0.00768859C4.84446 0.238047 0.237304 4.84521 0.00694569 10.512C-0.0851975 13.1381 0.744091 15.5799 2.21838 17.5149C2.44874 17.8144 2.21838 18.252 1.84981 18.252H1.80374C0.813199 18.229 0.00694569 19.0583 0.00694569 20.0488C0.00694569 21.0394 0.813199 21.8456 1.80374 21.8456H20.0481C21.0386 21.8456 21.8449 21.0394 21.8449 20.0488C21.8449 19.0583 21.0386 18.252 20.0481 18.252H20.002C19.6334 18.252 19.4031 17.8144 19.6334 17.5149C21.0156 15.6951 21.8449 13.4145 21.8449 10.9267C21.8449 4.75306 16.7309 -0.222669 10.5113 0.00768859ZM3.60053 10.9267C3.60053 6.89539 6.87161 3.60127 10.9259 3.60127C14.9802 3.60127 18.2513 6.87236 18.2513 10.9267C18.2513 14.9579 14.9802 18.252 10.9259 18.252C6.87161 18.252 3.60053 14.9579 3.60053 10.9267Z" fill="#160230"/>
<path d="M48.336 10.0052C49.1653 8.94558 49.6721 7.6095 49.6721 6.18128C49.6721 2.79502 46.9078 0.0307236 43.5446 0.0307236H35.9428C34.9522 0.0307236 34.146 0.836976 34.146 1.82752V20.0258C34.146 21.0163 34.9522 21.8226 35.9428 21.8226H44.42C48.0135 21.8226 50.9852 18.874 50.9852 15.2804C50.9852 13.1151 49.9486 11.2261 48.336 10.0052ZM37.7396 3.64734H43.5446C44.9037 3.64734 46.0555 4.79913 46.0555 6.18128C46.0555 7.58646 44.9037 8.69218 43.5446 8.69218H37.7396V3.64734ZM44.42 18.229H37.7396V12.3088H44.42C46.0325 12.3088 47.3685 13.6449 47.3685 15.2804C47.3685 16.8929 46.0325 18.229 44.42 18.229Z" fill="#160230"/>
<path d="M71.4179 0.00769043C70.3813 0.00769043 69.5751 0.813943 69.5751 1.85055V12.9077C69.5751 15.8333 67.1793 18.229 64.2538 18.229C61.3052 18.229 58.9095 15.8333 58.9095 12.9077V1.85055C58.9095 0.836979 58.1032 0.00769043 57.1127 0.00769043C56.1222 0.00769043 55.3159 0.813943 55.3159 1.85055V12.9077C55.3159 17.8374 59.3241 21.8456 64.2538 21.8456C69.1835 21.8456 73.1917 17.8374 73.1917 12.9077V1.85055C73.2147 0.813943 72.4085 0.00769043 71.4179 0.00769043Z" fill="#160230"/>
<path d="M83.9494 0.0307236H79.3422C78.3517 0.0307236 77.5454 0.836976 77.5454 1.82752V20.0258C77.5454 21.0163 78.3517 21.8226 79.3422 21.8226H83.9494C89.9848 21.8226 94.8453 16.939 94.8453 10.9267C94.8453 4.93735 89.9848 0.0307236 83.9494 0.0307236ZM83.9494 18.229H81.1621V3.64734H83.9494C87.9807 3.64734 91.2517 6.94146 91.2517 10.9497C91.2517 14.981 87.9807 18.229 83.9494 18.229Z" fill="#160230"/>
<path d="M101.157 0.0307236C100.167 0.0307236 99.3603 0.836976 99.3603 1.82752V20.0258C99.3603 21.0163 100.167 21.8226 101.157 21.8226C102.148 21.8226 103 21.0163 103 20.0258V1.85055C102.977 0.836976 102.148 0.0307236 101.157 0.0307236Z" fill="#160230"/>
<path d="M13.6672 10.9267C13.1834 10.9267 12.7688 11.2261 12.5615 11.6638C12.285 12.2858 11.6631 12.7235 10.9259 12.7235C10.1888 12.7235 9.5668 12.2858 9.29037 11.6638C9.08305 11.2261 8.6684 10.9267 8.18465 10.9267C7.30929 10.9267 6.71036 11.8251 7.0559 12.6083C7.7009 14.1056 9.19823 15.1422 10.9259 15.1422C12.6536 15.1422 14.1509 14.1056 14.7959 12.6083C15.1415 11.8251 14.5425 10.9267 13.6672 10.9267Z" fill="#160230"/>
</svg>
