<svg width="22" height="22" viewBox="0 0 22 22" fill="none" xmlns="http://www.w3.org/2000/svg">
<path d="M10.5113 0.00768859C4.84446 0.238047 0.237304 4.84521 0.00694569 10.512C-0.0851975 13.1381 0.744091 15.5799 2.21838 17.5149C2.44874 17.8144 2.21838 18.252 1.84981 18.252H1.80374C0.813199 18.229 0.00694569 19.0583 0.00694569 20.0488C0.00694569 21.0394 0.813199 21.8456 1.80374 21.8456H20.0481C21.0386 21.8456 21.8449 21.0394 21.8449 20.0488C21.8449 19.0583 21.0386 18.252 20.0481 18.252H20.002C19.6334 18.252 19.4031 17.8144 19.6334 17.5149C21.0156 15.6951 21.8449 13.4145 21.8449 10.9267C21.8449 4.75306 16.7309 -0.222669 10.5113 0.00768859ZM3.60053 10.9267C3.60053 6.89539 6.87161 3.60127 10.9259 3.60127C14.9802 3.60127 18.2513 6.87236 18.2513 10.9267C18.2513 14.9579 14.9802 18.252 10.9259 18.252C6.87161 18.252 3.60053 14.9579 3.60053 10.9267Z" fill="#160230"/>
<path d="M13.6672 10.9266C13.1834 10.9266 12.7688 11.2261 12.5615 11.6638C12.285 12.2857 11.6631 12.7234 10.9259 12.7234C10.1888 12.7234 9.5668 12.2857 9.29037 11.6638C9.08305 11.2261 8.66841 10.9266 8.18466 10.9266C7.3093 10.9266 6.71036 11.825 7.0559 12.6082C7.7009 14.1056 9.19823 15.1422 10.9259 15.1422C12.6536 15.1422 14.1509 14.1056 14.7959 12.6082C15.1415 11.825 14.5425 10.9266 13.6672 10.9266Z" fill="#160230"/>
</svg>
