<svg width="32" height="32" viewBox="0 0 32 32" fill="none" xmlns="http://www.w3.org/2000/svg">
<path d="M17 16H19M11 27C10.232 27 9.465 26.707 8.879 26.121C8.293 25.536 8 24.768 8 24C8 23.232 8.293 22.465 8.879 21.879L12.765 17.279C12.917 17.099 13 16.871 13 16.635V9L12 8V5.999C12 5.448 12.447 5 12.999 5H19.001C19.553 5 20 5.448 20 5.999V8L19 9V16.635C19 16.871 19.083 17.099 19.236 17.279L23.122 21.879C23.707 22.465 24 23.233 24 24.001C24 24.769 23.707 25.536 23.121 26.122C22.535 26.707 21.768 27 21 27H11ZM17 10H19H17ZM17 13H19H17Z" stroke="#160230" stroke-width="2" stroke-miterlimit="10" stroke-linecap="round" stroke-linejoin="round"/>
</svg>
