<svg width="32" height="32" viewBox="0 0 32 32" fill="none" xmlns="http://www.w3.org/2000/svg">
<path d="M16.848 9.94L19.173 5.934C19.7009 5.05662 20.8351 4.76503 21.7207 5.27898C22.6063 5.79293 22.9159 6.92234 22.416 7.816L20.346 11.384" stroke="#160230" stroke-width="1.5" stroke-linecap="round" stroke-linejoin="round"/>
<path d="M17.412 13.15L21.759 15.673C22.6364 16.2009 22.928 17.3351 22.414 18.2207C21.9001 19.1063 20.7707 19.4159 19.877 18.916L16.309 16.846" stroke="#160230" stroke-width="1.5" stroke-linecap="round" stroke-linejoin="round"/>
<path d="M14.6 13.823L12.02 18.259C11.4921 19.1364 10.3579 19.428 9.47229 18.914C8.58666 18.4001 8.27714 17.2707 8.777 16.377L10.847 12.809" stroke="#160230" stroke-width="1.5" stroke-linecap="round" stroke-linejoin="round"/>
<path d="M13.541 10.9L9.434 8.52C8.55663 7.99209 8.26503 6.85791 8.77898 5.97229C9.29294 5.08666 10.4223 4.77714 11.316 5.277L14.884 7.347" stroke="#160230" stroke-width="1.5" stroke-linecap="round" stroke-linejoin="round"/>
<path d="M19.354 22.312L20.195 24.838C20.3473 25.2954 20.2706 25.7981 19.9887 26.1892C19.7068 26.5802 19.2541 26.812 18.772 26.812H12.435C11.9529 26.812 11.5003 26.5802 11.2183 26.1892C10.9364 25.7981 10.8597 25.2954 11.012 24.838L11.854 22.312" stroke="#160230" stroke-width="1.5" stroke-linecap="round" stroke-linejoin="round"/>
<path fill-rule="evenodd" clip-rule="evenodd" d="M15.604 14.062C16.8466 14.062 17.854 13.0546 17.854 11.812C17.854 10.5694 16.8466 9.562 15.604 9.562C14.3614 9.562 13.354 10.5694 13.354 11.812C13.354 13.0546 14.3614 14.062 15.604 14.062Z" stroke="#160230" stroke-width="1.5" stroke-linecap="round" stroke-linejoin="round"/>
</svg>
