<svg width="32" height="32" viewBox="0 0 32 32" fill="none" xmlns="http://www.w3.org/2000/svg">
<path d="M4.767 27.259L27.267 4.759" stroke="#160230" stroke-width="1.5" stroke-linecap="round" stroke-linejoin="round"/>
<path d="M24.965 11.509C25.8487 12.5055 26.488 13.6943 26.832 14.981C27.0458 15.7803 26.572 16.6018 25.773 16.817L25.741 16.825C25.0023 17.0251 24.2413 16.5886 24.041 15.85C23.8027 14.9849 23.3662 14.1871 22.766 13.52" stroke="#160230" stroke-width="1.5" stroke-linecap="round" stroke-linejoin="round"/>
<path d="M15.267 13.009V11.509H12.267V8.509H18.319C18.8038 8.509 19.2878 8.54914 19.766 8.629" stroke="#160230" stroke-width="1.5" stroke-linecap="round" stroke-linejoin="round"/>
<path d="M13.767 15.353C12.9872 15.5546 12.3213 16.0613 11.919 16.759" stroke="#160230" stroke-width="1.5" stroke-linecap="round" stroke-linejoin="round"/>
<path d="M11.517 24.259V25.759C11.517 26.5874 12.1886 27.259 13.017 27.259H20.517C21.3454 27.259 22.017 26.5874 22.017 25.759V18.259C22.017 17.3974 21.6465 16.5775 21 16.008" stroke="#160230" stroke-width="1.5" stroke-linecap="round" stroke-linejoin="round"/>
<path d="M16.767 8.509V4.759" stroke="#160230" stroke-width="1.5" stroke-linecap="round" stroke-linejoin="round"/>
<path d="M13.017 4.759H20.517" stroke="#160230" stroke-width="1.5" stroke-linecap="round" stroke-linejoin="round"/>
<path d="M5.142 5.509C5.34911 5.509 5.517 5.67689 5.517 5.884" stroke="#160230" stroke-width="1.5" stroke-linecap="round" stroke-linejoin="round"/>
<path d="M4.767 5.884C4.767 5.67689 4.93489 5.509 5.142 5.509" stroke="#160230" stroke-width="1.5" stroke-linecap="round" stroke-linejoin="round"/>
<path d="M5.142 6.259C4.93489 6.259 4.767 6.09111 4.767 5.884" stroke="#160230" stroke-width="1.5" stroke-linecap="round" stroke-linejoin="round"/>
<path d="M5.517 5.884C5.517 6.09111 5.34911 6.259 5.142 6.259" stroke="#160230" stroke-width="1.5" stroke-linecap="round" stroke-linejoin="round"/>
<path d="M5.142 9.259C5.34911 9.259 5.517 9.42689 5.517 9.634" stroke="#160230" stroke-width="1.5" stroke-linecap="round" stroke-linejoin="round"/>
<path d="M4.767 9.634C4.767 9.42689 4.93489 9.259 5.142 9.259" stroke="#160230" stroke-width="1.5" stroke-linecap="round" stroke-linejoin="round"/>
<path d="M5.142 10.009C4.93489 10.009 4.767 9.84111 4.767 9.634" stroke="#160230" stroke-width="1.5" stroke-linecap="round" stroke-linejoin="round"/>
<path d="M5.517 9.634C5.517 9.84111 5.34911 10.009 5.142 10.009" stroke="#160230" stroke-width="1.5" stroke-linecap="round" stroke-linejoin="round"/>
<path d="M8.892 7.009C9.09911 7.009 9.267 7.17689 9.267 7.384" stroke="#160230" stroke-width="1.5" stroke-linecap="round" stroke-linejoin="round"/>
<path d="M8.517 7.384C8.517 7.17689 8.68489 7.009 8.892 7.009" stroke="#160230" stroke-width="1.5" stroke-linecap="round" stroke-linejoin="round"/>
<path d="M8.892 7.759C8.68489 7.759 8.517 7.59111 8.517 7.384" stroke="#160230" stroke-width="1.5" stroke-linecap="round" stroke-linejoin="round"/>
<path d="M9.267 7.384C9.267 7.59111 9.09911 7.759 8.892 7.759" stroke="#160230" stroke-width="1.5" stroke-linecap="round" stroke-linejoin="round"/>
<path d="M8.892 11.509C9.09911 11.509 9.267 11.6769 9.267 11.884" stroke="#160230" stroke-width="1.5" stroke-linecap="round" stroke-linejoin="round"/>
<path d="M8.517 11.884C8.517 11.6769 8.68489 11.509 8.892 11.509" stroke="#160230" stroke-width="1.5" stroke-linecap="round" stroke-linejoin="round"/>
<path d="M8.892 12.259C8.68489 12.259 8.517 12.0911 8.517 11.884" stroke="#160230" stroke-width="1.5" stroke-linecap="round" stroke-linejoin="round"/>
<path d="M9.267 11.884C9.267 12.0911 9.09911 12.259 8.892 12.259" stroke="#160230" stroke-width="1.5" stroke-linecap="round" stroke-linejoin="round"/>
<path d="M5.142 13.009C5.34911 13.009 5.517 13.1769 5.517 13.384" stroke="#160230" stroke-width="1.5" stroke-linecap="round" stroke-linejoin="round"/>
<path d="M4.767 13.384C4.767 13.1769 4.93489 13.009 5.142 13.009" stroke="#160230" stroke-width="1.5" stroke-linecap="round" stroke-linejoin="round"/>
<path d="M5.142 13.759C4.93489 13.759 4.767 13.5911 4.767 13.384" stroke="#160230" stroke-width="1.5" stroke-linecap="round" stroke-linejoin="round"/>
<path d="M5.517 13.384C5.517 13.5911 5.34911 13.759 5.142 13.759" stroke="#160230" stroke-width="1.5" stroke-linecap="round" stroke-linejoin="round"/>
</svg>
