<svg width="32" height="32" viewBox="0 0 32 32" fill="none" xmlns="http://www.w3.org/2000/svg">
<path d="M15.5044 27.0097C13.7334 27.0097 11.7894 26.6557 9.68142 25.9487C9.40942 25.8567 9.18842 25.6527 9.07742 25.3867C6.99242 20.4107 7.08542 15.8517 9.34642 12.2007C12.2374 7.53172 18.6484 4.54272 26.9344 4.00172C27.2234 3.98572 27.4824 4.08172 27.6834 4.26972C27.8854 4.45972 27.9994 4.72472 27.9994 5.00072C27.9994 15.3227 25.8484 22.1047 21.6034 25.1567C19.8874 26.3917 17.8464 27.0097 15.5044 27.0097ZM10.7504 24.1927C14.8004 25.4647 18.0584 25.2427 20.4364 23.5327C23.9884 20.9777 25.8554 15.1107 25.9924 6.08372C18.8854 6.75072 13.4714 9.33572 11.0454 13.2537C9.17442 16.2767 9.07542 19.9547 10.7504 24.1927ZM4.99842 28.0007C4.50342 28.0007 4.07342 27.6337 4.00842 27.1297C3.93742 26.5817 4.32342 26.0797 4.87142 26.0087C4.93942 25.9997 12.2034 24.8787 18.1314 14.5047C18.4044 14.0257 19.0154 13.8587 19.4954 14.1327C19.9744 14.4067 20.1414 15.0177 19.8674 15.4967C13.4094 26.7987 5.46342 27.9487 5.12742 27.9927L4.99842 28.0007Z" fill="#160230"/>
</svg>
